<svg width="85" height="60" viewBox="0 0 85 60" fill="none" xmlns="http://www.w3.org/2000/svg">
<path fill-rule="evenodd" clip-rule="evenodd" d="M0 16C0 10.3995 0 7.59921 1.08993 5.46009C2.04867 3.57847 3.57847 2.04867 5.46009 1.08993C7.59921 0 10.3995 0 16 0H69C74.6005 0 77.4008 0 79.5399 1.08993C81.4215 2.04867 82.9513 3.57847 83.9101 5.46009C85 7.59921 85 10.3995 85 16V44C85 49.6005 85 52.4008 83.9101 54.5399C82.9513 56.4215 81.4215 57.9513 79.5399 58.9101C77.4008 60 74.6005 60 69 60H16C10.3995 60 7.59921 60 5.46009 58.9101C3.57847 57.9513 2.04867 56.4215 1.08993 54.5399C0 52.4008 0 49.6005 0 44V16Z" fill="#3B5998"/>
<path fill-rule="evenodd" clip-rule="evenodd" d="M47.3462 21.1298V23.9856H45.6478C44.3173 23.9856 44.0685 24.6238 44.0685 25.5433V27.5877H47.238L46.8161 30.7897H44.0685V39H40.7584V30.7897H38V27.5877H40.7584V25.2296C40.7584 22.4928 42.4351 21 44.8798 21C46.0481 21 47.0541 21.0865 47.3462 21.1298Z" fill="white"/>
</svg>
