<svg width="95" height="70" viewBox="0 0 95 70" fill="none" xmlns="http://www.w3.org/2000/svg">
<g filter="url(#filter0_d)">
<path fill-rule="evenodd" clip-rule="evenodd" d="M5 20C5 14.3995 5 11.5992 6.08993 9.46009C7.04867 7.57847 8.57847 6.04867 10.4601 5.08993C12.5992 4 15.3995 4 21 4H74C79.6005 4 82.4008 4 84.5399 5.08993C86.4215 6.04867 87.9513 7.57847 88.9101 9.46009C90 11.5992 90 14.3995 90 20V48C90 53.6005 90 56.4008 88.9101 58.5399C87.9513 60.4215 86.4215 61.9513 84.5399 62.9101C82.4008 64 79.6005 64 74 64H21C15.3995 64 12.5992 64 10.4601 62.9101C8.57847 61.9513 7.04867 60.4215 6.08993 58.5399C5 56.4008 5 53.6005 5 48V20Z" fill="white"/>
</g>
<path d="M42.9892 36.0166L42.3626 38.3557L40.0726 38.4041C39.3882 37.1347 39 35.6824 39 34.139C39 32.6466 39.363 31.2392 40.0063 30H40.0068L42.0456 30.3738L42.9387 32.4003C42.7518 32.9453 42.6499 33.5303 42.6499 34.139C42.65 34.7997 42.7696 35.4327 42.9892 36.0166Z" fill="#FBBB00"/>
<path d="M56.8426 32.4577C56.946 33.0021 56.9999 33.5644 56.9999 34.139C56.9999 34.7834 56.9321 35.4119 56.8031 36.0182C56.365 38.0812 55.2202 39.8827 53.6343 41.1575L53.6338 41.157L51.0659 41.026L50.7024 38.7572C51.7547 38.1401 52.5771 37.1743 53.0103 36.0182H48.1978V32.4577H53.0805H56.8426Z" fill="#518EF8"/>
<path d="M53.6341 41.157L53.6346 41.1575C52.0922 42.3972 50.133 43.139 48.0002 43.139C44.5728 43.139 41.5929 41.2233 40.0728 38.4041L42.9894 36.0167C43.7494 38.0451 45.7062 39.4891 48.0002 39.4891C48.9862 39.4891 49.91 39.2225 50.7026 38.7572L53.6341 41.157Z" fill="#28B446"/>
<path d="M53.7384 36.211L50.8227 38.598C50.0024 38.0852 49.0326 37.789 47.9937 37.789C45.6477 37.789 43.6544 39.2992 42.9324 41.4004L40.0005 39H40C41.4979 36.1121 44.5153 34.139 47.9937 34.139C50.1774 34.139 52.1797 34.9169 53.7384 36.211Z" fill="#F14336"/>
<defs>
<filter id="filter0_d" x="0" y="0" width="95" height="70" filterUnits="userSpaceOnUse" color-interpolation-filters="sRGB">
<feFlood flood-opacity="0" result="BackgroundImageFix"/>
<feColorMatrix in="SourceAlpha" type="matrix" values="0 0 0 0 0 0 0 0 0 0 0 0 0 0 0 0 0 0 127 0"/>
<feOffset dy="1"/>
<feGaussianBlur stdDeviation="2.5"/>
<feColorMatrix type="matrix" values="0 0 0 0 0 0 0 0 0 0 0 0 0 0 0 0 0 0 0.1 0"/>
<feBlend mode="normal" in2="BackgroundImageFix" result="effect1_dropShadow"/>
<feBlend mode="normal" in="SourceGraphic" in2="effect1_dropShadow" result="shape"/>
</filter>
</defs>
</svg>
