<svg width="85" height="60" viewBox="0 0 85 60" fill="none" xmlns="http://www.w3.org/2000/svg">
<path fill-rule="evenodd" clip-rule="evenodd" d="M0 16C0 10.3995 0 7.59921 1.08993 5.46009C2.04867 3.57847 3.57847 2.04867 5.46009 1.08993C7.59921 0 10.3995 0 16 0H69C74.6005 0 77.4008 0 79.5399 1.08993C81.4215 2.04867 82.9513 3.57847 83.9101 5.46009C85 7.59921 85 10.3995 85 16V44C85 49.6005 85 52.4008 83.9101 54.5399C82.9513 56.4215 81.4215 57.9513 79.5399 58.9101C77.4008 60 74.6005 60 69 60H16C10.3995 60 7.59921 60 5.46009 58.9101C3.57847 57.9513 2.04867 56.4215 1.08993 54.5399C0 52.4008 0 49.6005 0 44V16Z" fill="url(#paint0_linear)"/>
<path fill-rule="evenodd" clip-rule="evenodd" d="M36.9014 29.9772C36.9014 27.1494 39.1927 24.8555 42.023 24.8555C44.8508 24.8555 47.1447 27.1469 47.1447 29.9772C47.1447 32.805 44.8533 35.0989 42.023 35.0989C39.1952 35.0989 36.9014 32.8075 36.9014 29.9772ZM38.6987 29.9772C38.6987 31.8136 40.1858 33.3015 42.023 33.3015C43.8603 33.3015 45.3482 31.8136 45.3474 29.9772C45.3474 28.1408 43.8594 26.6529 42.023 26.6529C40.1866 26.6529 38.6987 28.1408 38.6987 29.9772Z" fill="white"/>
<path fill-rule="evenodd" clip-rule="evenodd" d="M37.9115 20.0632C39.7495 19.9817 44.2982 19.9775 46.1346 20.0632C49.8914 20.2362 51.7719 22.3612 51.9366 25.8652C52.0181 27.7033 52.0231 32.251 51.9366 34.0883C51.8002 37.0567 50.4046 38.7093 48.5557 39.427C47.2022 39.951 45.8809 39.951 42.0768 39.951H42.0226C41.6215 39.951 41.2333 39.9539 40.8575 39.9567C37.7205 39.98 35.4439 39.9969 33.723 38.2768C32.0143 36.5681 32.0266 34.3396 32.0448 31.0602C32.0467 30.7113 32.0487 30.3505 32.0487 29.9772C32.0487 29.5783 32.046 29.1927 32.0434 28.8199C32.0211 25.6471 32.0052 23.3953 33.723 21.6775C34.8716 20.5289 36.2963 20.1389 37.9115 20.0632ZM42.9142 38.1542C46.3102 38.162 47.8825 38.1657 49.0414 37.0068C50.2061 35.8366 50.2046 34.2806 50.2012 30.6704C50.201 30.447 50.2007 30.2158 50.2008 29.9763C50.2008 27.3132 50.19 26.9971 50.1426 25.945C49.9517 21.7291 47.0284 21.7559 43.1411 21.7914C42.7768 21.7947 42.404 21.7981 42.0243 21.7981L41.9868 21.7732C39.36 21.7732 39.0177 21.7853 37.9958 21.8214L37.9481 21.8231C33.7387 22.0387 33.7642 24.8144 33.8007 28.7913C33.8042 29.1715 33.8078 29.5628 33.8078 29.9639C33.8078 30.4368 33.8029 30.8873 33.7982 31.3162C33.7693 33.9672 33.7493 35.7938 34.9556 36.9943C36.115 38.1569 37.6838 38.1558 41.4272 38.1531C41.6123 38.153 41.8026 38.1529 41.9985 38.1529C42.3177 38.1529 42.6227 38.1536 42.9142 38.1542Z" fill="white"/>
<circle cx="47.3472" cy="24.6534" r="1.19683" fill="white"/>
<defs>
<linearGradient id="paint0_linear" x1="39.9592" y1="-17.5717" x2="-11.4701" y2="51.454" gradientUnits="userSpaceOnUse">
<stop stop-color="#EC2FAF"/>
<stop offset="0.405069" stop-color="#F9151A"/>
<stop offset="1" stop-color="#FEBA00"/>
</linearGradient>
</defs>
</svg>
